<?xml version="1.0" encoding="iso-8859-1"?>
<!-- Uploaded to: SVG Repo, www.svgrepo.com, Generator: SVG Repo Mixer Tools -->
<svg fill="#000000" height="800px" width="800px" version="1.1" id="Layer_1" xmlns="http://www.w3.org/2000/svg" xmlns:xlink="http://www.w3.org/1999/xlink" 
	 viewBox="0 0 512 512" xml:space="preserve">
<g>
	<g>
		<g>
			<path d="M432.311,0H79.689C68.7,0,59.79,8.909,59.79,19.899v413.024c0,10.99,8.909,19.899,19.899,19.899h71.026v39.254
				c0,16.358,18.732,25.748,31.837,15.921l73.45-55.071l73.45,55.071c13.015,9.758,31.836,0.562,31.836-15.921v-50.911
				l85.097-85.109c3.795-3.799,5.825-8.901,5.825-14.071V19.899C452.21,8.909,443.301,0,432.311,0z M321.488,452.284l-53.538-40.146
				c-7.071-5.306-16.796-5.312-23.873-0.012c-0.129,0.097-53.434,40.059-53.565,40.158c0-14.319,0-102.724,0-116.216
				c19.252,12.242,41.844,18.994,65.445,19.001c0.012,0,0.021,0,0.034,0c23.619,0,46.231-6.752,65.497-19
				C321.488,349.671,321.488,440.135,321.488,452.284z M255.992,315.272c-0.007,0-0.017,0-0.024,0
				c-61.414-0.017-102.262-65.522-72.212-121.302c30.996-57.533,113.387-57.747,144.549,0.065
				C358.203,249.507,317.745,315.272,255.992,315.272z M361.286,384.876v-22.993h22.99
				C380.319,365.841,366.04,380.123,361.286,384.876z M412.414,322.085h-51.127v-27.25c47.36-80.131-9.942-183.839-105.279-183.839
				c-96.145,0-151.966,104.41-105.292,183.8v118.227H99.588V39.798h312.826V322.085z"/>
			<path d="M144.264,104.364h223.472c10.99,0,19.899-8.909,19.899-19.899c0-10.99-8.909-19.899-19.899-19.899H144.264
				c-10.99,0-19.899,8.909-19.899,19.899C124.365,95.454,133.274,104.364,144.264,104.364z"/>
			<path d="M256.006,175.854c-31.541,0-57.203,25.655-57.203,57.19s25.662,57.19,57.203,57.19c31.535,0,57.19-25.655,57.19-57.19
				S287.541,175.854,256.006,175.854z M256.006,250.436c-9.597,0-17.405-7.802-17.405-17.392c0-9.59,7.808-17.392,17.405-17.392
				c9.59,0,17.392,7.802,17.392,17.392C273.398,242.634,265.596,250.436,256.006,250.436z"/>
		</g>
	</g>
</g>
</svg>